<?xml version="1.0" encoding="UTF-8"?>
<svg id="Layer_2" data-name="Layer 2" xmlns="http://www.w3.org/2000/svg" viewBox="0 0 352.28 220.83">
  <defs>
    <style>
      .cls-1 {
        fill: #2b3579;
      }
    </style>
  </defs>
  <g id="Layer_1-2" data-name="Layer 1">
    <g>
      <path class="cls-1" d="M81.49,166.36c-.81,1.65-1.08,3.61-1.4,5.71l40.15.02c-.58,20.62-6.73,29.76-22.93,40.91-5.32,3.66-10.73,6.07-17.23,6.87-13.29.71-26.17,1.17-39.58.87l-40.5-.91,30.84-60.52,14.41-28.49,38.86-77.26L109.54,1.72l19.12,37.85,46.23,93.18,22.26,45.95,8.68,18.41,10.33,22.89c-10.65-.21-20.4.76-30.86-.48-9.85-1.17-19.54-7.43-26.02-14.68-3.34-3.74-4.79-8.45-6.89-12.91-11.11-23.55-22.83-46.31-36.05-68.71l-7.38-12.49-27.46,55.63Z"/>
      <path class="cls-1" d="M283.09,220.82l-42.57-.89-18.95-37.11-29.22-57.77c-5.61-11.2-10.69-21.75-15.78-33.33-.65-14.43-.82-28.27.18-42.8,2.02-27.23,20.59-47.44,48.22-48.93l.39,172.05,64.87-.32,62.05.48c-.32,23.25-16.4,42.59-39,47.63l-30.19.98Z"/>
    </g>
  </g>
</svg>