<?xml version="1.0" encoding="UTF-8"?>
<svg id="Layer_2" data-name="Layer 2" xmlns="http://www.w3.org/2000/svg" viewBox="0 0 42.87 42.87">
  <defs>
    <style>
      .cls-1 {
        fill: #233467;
      }

      .cls-2 {
        fill: #fff;
      }
    </style>
  </defs>
  <g id="Layer_1-2" data-name="Layer 1">
    <g>
      <path class="cls-1" d="M0,0v10.45h27.84c.67,0,1.34.05,2,.14.48.09.94.26,1.36.5.61.32,1.07.86,1.29,1.51v.07l10.31,9.51V0H0Z"/>
      <path class="cls-1" d="M10.16,27.41v-13.46H0v28.92h10.16v-15.46Z"/>
      <path class="cls-1" d="M13.96,19.54h12.67c1.06.32,2.18-.28,2.5-1.34.12-.38.12-.79,0-1.17v-.57c.08-.71-.1-1.42-.5-2-.57-.44-1.28-.65-2-.57h-12.67v5.65Z"/>
      <path class="cls-1" d="M13.96,22.83v6.44h12.81c1.06.32,2.18-.27,2.5-1.33.12-.38.12-.79,0-1.17v-1.43c.08-.71-.1-1.42-.5-2-.58-.41-1.29-.59-2-.5h-12.82Z"/>
      <path d="M32.92,15.39v2c.07.96-.24,1.91-.86,2.65-.82.71-1.85,1.13-2.93,1.22,1.1.11,2.14.59,2.93,1.36.65.87.97,1.93.93,3.01v2.29c.02.6,0,1.2-.07,1.79-.05.39-.15.78-.29,1.14-.28.68-.82,1.22-1.5,1.5-.99.33-2.03.48-3.08.43h-14.17v10.1h28.99v-20.68l-10.31-9.59c.26.91.38,1.85.36,2.79Z"/>
      <path class="cls-2" d="M32.14,22.55c-.78-.8-1.82-1.28-2.93-1.36,1.08-.1,2.1-.52,2.93-1.22.63-.73.94-1.69.86-2.65v-2c.03-.92-.09-1.84-.36-2.72v-.07c-.22-.65-.68-1.19-1.29-1.5-.42-.24-.88-.41-1.36-.5-.69-.07-1.38-.1-2.08-.08H0v3.51h10.16v13.46h0v15.46h3.72v-10.09h14.17c1.04.05,2.09-.1,3.08-.43.69-.26,1.24-.81,1.5-1.5.17-.36.27-.75.29-1.14.07-.59.09-1.19.07-1.79v-2.29c.08-1.09-.23-2.18-.86-3.08ZM29.27,26.7c.32,1.06-.28,2.18-1.34,2.5-.38.12-.79.12-1.17,0h-12.81v-6.45h12.81c1.06-.32,2.18.28,2.5,1.34.12.38.12.79,0,1.17v1.44ZM28.63,14.46c.41.58.59,1.29.5,2v.57c.32,1.06-.27,2.18-1.33,2.5-.38.12-.79.12-1.17,0h-12.67v-5.58h12.67c.71-.09,1.42.09,2,.5h0Z"/>
    </g>
  </g>
</svg>