<?xml version="1.0" encoding="UTF-8"?>
<svg id="Layer_2" data-name="Layer 2" xmlns="http://www.w3.org/2000/svg" viewBox="0 0 199.79 200.54">
  <defs>
    <style>
      .cls-1 {
        fill: #bb3131;
      }
    </style>
  </defs>
  <g id="Layer_1-2" data-name="Layer 1">
    <g>
      <path class="cls-1" d="M0,199.82v-35.66s103.83-.19,103.83-.19c20.44-.05,38.88-13.02,48.89-27.93,12.54-18.69,13.65-39.86,6.43-60.02-7.95-22.21-26.88-39.33-51.35-39.39L0,36.03V0s109.7.06,109.7.06c53.59,1.16,94.49,47.13,89.7,100.25,4.74,52.3-34.95,97.9-87.69,100.22L0,199.82Z"/>
      <path class="cls-1" d="M0,151.7V48.4s105.31.42,105.31.42c18.03.05,32.24,10.97,39.61,26.46,8.1,17.01,8.64,35.49-1.81,52.19-8.53,13.63-24.25,24.34-42.57,24.38L0,151.7Z"/>
    </g>
  </g>
</svg>