<?xml version="1.0" encoding="UTF-8"?>
<svg id="Layer_2" data-name="Layer 2" xmlns="http://www.w3.org/2000/svg" viewBox="0 0 139.54 145" fill="#C69B7A">
  <g id="Layer_1-2" data-name="Layer 1">
    <g>
      <path d="M53.66,111.08c-1.72,0-3.09-1.05-2.95-2.8.08-.95.86-1.88,1.54-2.55l5.49-6.28,7.83-.03v-48.55c-.01-1.92-1.09-3.46-2.79-4.07-2.75-.98-6.05-.2-8.88.77-3.17,1.09-7.66,1.39-8.58-1.53-.22-.68.72-1.94,1.44-1.63,1.82.79,3.51.98,5.44.36,4.15-1.34,7.45-2.26,12.05-1.1.78-1.78,1.53-3.47,2.69-5.07,1.03-1.43,3.41-1.79,4.64-.44,1.44,1.57,2.16,3.51,3.09,5.47,2.82-.82,5.68-.68,8.5.06l4.44,1.16c1.61.42,3.06.2,4.56-.49.59-.27,1.3.36,1.52.82.27.57.25,1.25-.21,1.82-1.34,1.64-4.54,1.49-6.91.87l-5.28-1.37c-3.21-.83-7.9.49-7.9,3.66l-.03,49.26,7.57.03,6.4,7.12c.74.79,1.08,1.84.62,2.88-.33.75-1.24,1.62-2.35,1.62h-31.95ZM70.67,99.37v-50.13c.01-1.48,1.1-2.56,1.84-3.76-.56-1.7-2.31-5.49-3.18-5.33-.2.04-.58.33-.69.53l-2.32,4.73c.75,1.3,1.98,2.52,1.98,4.17l.02,49.82,2.34-.04ZM85.02,108.24l-4.94-5.53h-21.25s-2.39,2.72-2.39,2.72l-2.43,2.81h31.01Z"/>
      <path d="M52.54,88.2c-5.43,1.65-11.42-1.29-13.27-6.72-.33-.97-.47-2.05-.14-3.11l5.88-18.78,2.78-9.12c.12-.4.72-.8,1.05-.9.37-.12,1.27.06,1.45.6l9.11,28.11c.27.84.45,1.77.24,2.58-.93,3.63-3.8,6.34-7.1,7.34ZM41.54,79.06c2.38.71,4.29,1.07,6.43,1.16v-21.19c-.5.79-.66,1.63-.95,2.56l-5.48,17.46ZM50.64,80.38c2.39-.21,4.27-.51,6.35-1.12l-6.44-20,.04,2.93.05,18.19ZM56.51,81.9c-4.72,1.46-9.56,1.69-14.43-.27,1.84,3.37,5.8,5.13,9.53,4.01,2.02-.6,3.68-1.88,4.89-3.74Z"/>
      <path d="M100.68,81.83c-2.12,4.74-6.92,7.26-12,6.28-3.87-.74-6.97-3.48-8.24-7.25-.32-.95-.32-2,0-3l8.54-27.24c.24-.76.72-1.14,1.41-1.12s1.12.43,1.36,1.15l6.05,18.06,2.97,8.95c.47,1.43.56,2.7-.1,4.17ZM82.89,78.68c2.29.69,4.22.99,6.37,1.18v-21.33s-.58,1.49-.58,1.49l-5.8,18.65ZM98.48,78.66l-6.63-19.79-.08,21.01c2.45-.06,4.64-.39,6.71-1.21ZM97.92,81.33c-4.98,1.89-9.61,1.61-14.65-.06l1.28,1.61c1.22,1.53,3.05,2.51,5,2.72,3.45.36,6.64-1.12,8.37-4.26Z"/>
      <path d="M100.12,9.03l2.29-2.41,4.78,2.47-1.58,17.03c-.03.37.02.57.14,1.02l-4.72-2.3.65-3.47-5.44-2.55-2.09,2.33-3.73-1.43c-4.04-1.09-8.02-1.81-12.23-2.66l3.03-16.48,12.15,2.52-.75,3.61-7.79-1.66-.43,2.81,6.34,1.32-.61,3.41-6.29-1.39-.43,2.87,7.31,1.59-.56,3.32,9.95-9.95ZM102.4,17.64l.65-5.73-4.19,4.12,3.54,1.61Z"/>
      <path d="M38.99,18.32l-1.89-3.08,6.51-3.11,4.32,7.37c-1.6,2.36-3.82,4.09-6.39,5.26-5.32,2.43-10.76-1.39-12.09-6.58-.68-2.66.05-5.23,1.92-7.24,2.33-2.3,5.36-3.56,8.75-4.16l.63,3.43c-2.98.86-6.91,2.62-6.95,5.7-.03,2.11,1.35,4.37,3.36,5.13,2.15.81,4.33-.15,6-1.57l-1.38-2.65-2.79,1.51Z"/>
      <path d="M53.01,15.95v3.38s-4.57,1.19-4.57,1.19l.12-2.8.65-7.25.79-7.62,5.41-1.56,3.39,5.19,6.53,9.9-4.8,1.19-1.94-3.09-5.58,1.47ZM56.86,11.28l-3.2-4.98-.52,5.99,3.72-1.01Z"/>
      <polygon points="128.23 40.13 123.89 34.71 121.67 36.64 126.73 42.91 123.64 45.4 115.89 35.69 126.54 26.71 128.59 24.96 136.36 34.63 133.6 36.96 130.44 33.03 128.56 30.74 126.6 32.38 130.97 37.81 128.23 40.13"/>
      <path d="M26.41,30.63l2.81-2.7,2.47-2.47,2.8,2.72-3.82,3.72-4.72,4.55-3.28-3.23c-1.95-1.92-3.88-3.77-5.78-5.73l-2.99-3.09,9.36-8.5,2.24,2.72c.16.2-.41.67-.6.85l-5.11,4.67,1.99,2.13,4.53-4.49,2.45,2.55-2.07,1.97-2.42,2.22,2.13,2.11Z"/>
      <path d="M118.91,31.17c-1.97,3.14-6.53,2.66-9.65-.2-1.17-1.07-1.98-2.18-2.84-3.53-.26-.41-1.04-1.18-.51-1.82l3.37-1.48c.73,2.32,2.02,4.18,4.18,5.14.41.18,1.06.21,1.35.01,1.37-.94-.29-2.66-1.45-4.05-.99-1.18-1.68-2.61-1.86-4.13-.27-2.3.98-4.41,3.2-4.97,4.03-1.01,8.36,2.94,9.73,7l-3.21,1.34c-.79-2.42-3.55-5.18-5.06-4.34-1.02.57-.22,1.73.71,2.82,2.16,2.53,3.76,5.43,2.02,8.21Z"/>
      <polygon points="24.95 37.58 18.69 46.77 8.2 39.25 4.74 36.88 7.41 33.17 17.94 40.78 21.7 35.18 24.95 37.58"/>
      <polygon points="76.85 16.89 65.7 16.84 65.67 14.78 65.49 10.64 65.29 6.69 64.88 .01 69.55 0 69.75 6.31 69.88 13.01 76.84 13 76.85 16.89"/>
      <path d="M6.06,88.65c-.66,1.39-2.17,1.93-3.45,1.69-1.41-.26-2.38-1.41-2.57-2.7-.22-1.48.5-2.81,1.88-3.41,1.27-.55,2.65-.17,3.54.74s1.22,2.38.6,3.68Z"/>
      <path d="M139.48,86.56c.2,1.3-.17,2.4-1.02,3.11s-1.94.9-3.08.56c-1.86-.56-2.67-2.68-1.82-4.48.57-1.22,1.91-1.91,3.28-1.74,1.16.14,2.44,1.17,2.65,2.55Z"/>
      <path d="M15.15,106.78c.25,2.62-2.15,4.64-4.51,4.34s-3.99-2.22-3.56-4.66c.34-1.94,2.12-3.26,4.06-3.24s3.81,1.36,4.02,3.55ZM14.3,107.69c.36-1.59-.75-3.03-1.99-3.5-1.47-.55-3-.05-3.85,1.1-.89,1.21-.88,2.82.15,4.01.82.95,2.13,1.26,3.34.92,1.03-.29,2.05-1.23,2.35-2.53Z"/>
      <path d="M19.3,123.97l.58-3.45-1.07-1.1-1.97,2.04-.6-.65,5.53-5.49,1.95,2.25c.81.94.89,2.21.13,3.09-.8.92-2.13,1.08-3.2.28l-.6,3.42-.76-.4ZM21.85,120.69c.47.16,1.19-.26,1.43-.58.86-1.14-.4-2.41-1.53-3.71l-2.31,2.34c.58.95,1.24,1.55,2.41,1.95Z"/>
      <path d="M76.33,138.78c.85,2.08-.2,4.27-2.18,4.98s-4.09-.43-4.74-2.5c-.62-1.96.25-3.97,2.08-4.67,1.93-.74,4,.14,4.84,2.19ZM75.15,142.22c.91-1.16.76-2.83-.02-3.93s-2.07-1.43-3.27-.99-1.82,1.55-1.77,2.89.73,2.35,1.87,2.82c1.05.43,2.37.27,3.2-.79Z"/>
      <path d="M118.99,120.31l2.37,2.01-.53.61c-.1.12-.47-.32-.59-.43l-4.96-4.47,2.3-2.29c.76-.76,1.94-.82,2.72-.23s1.08,1.7.53,2.75l4.1.51c-.31.43-.7.6-1.07.56l-3.57-.39-1.29,1.36ZM118.4,119.85l1.48-1.6c.61-.66.57-1.45.01-1.99-.61-.58-1.38-.46-2,.17l-1.54,1.56,2.04,1.85Z"/>
      <path d="M88.14,138.46l-1.47.21.73,2.84-.78.24-1.87-6.92,2.85-.8c1.19-.33,2.31.34,2.64,1.44.31,1.02-.24,2.08-1.41,2.65l2.98,2.52c-.75.28-1.28.06-1.74-.37l-1.93-1.81ZM88.12,137.66c.52-.12,1.09-.68,1.23-1.08.18-.51.1-1.43-.42-1.66-1.05-.46-2.2-.07-3.19.34l.71,2.8,1.68-.4Z"/>
      <path d="M130.9,100.73l2.82,1.16,1.38-3.66.83.24-1.85,4.47-6.97-2.88,1.66-3.93c.1-.23.85,0,.78.2l-1.37,3.24,2.05.91,1.47-3.58.72.31-1.51,3.52Z"/>
      <path d="M133.12,105.9c-.39,2.02-2.35,4.2-3.1,2.91,1.19-.72,2.12-1.65,2.28-3.06.07-.6-.39-1.17-.91-1.36-1.39-.49-1.88,1.71-3.15,2.57-1.15.78-2.9-.24-3.11-1.57-.28-1.73.93-3.16,2.58-3.53.19,1.15-1.12.84-1.72,2.28-.3.72-.22,1.36.36,1.87.44.38,1.31.64,1.83-.05l.98-1.34c.63-.86,1.53-1.32,2.59-.94.77.28,1.57,1.17,1.38,2.21Z"/>
      <path d="M19.87,113.3c.17-.15.65.5.57.74l-3.01,2.62c-1.53,1.33-3.74,1.12-4.86-.53-.83-1.22-.55-2.79.6-3.71l3.85-3.1.48.7-3.66,2.9c-.68.54-1.05,1.44-.89,2.19.17.83.87,1.43,1.77,1.59,1.11.2,2-.5,2.77-1.21l2.38-2.18Z"/>
      <path d="M36.57,127.52l.78.3-1.7,3.31c-.33.64-.89,1.5-1.48,1.88-1.19.76-2.57.29-3.54-.5-.91-.74-1.27-1.91-.71-2.99l2.52-4.87.82.44-2.72,5.25c-.44.84.61,1.73,1.27,2.04.95.45,2,.32,2.51-.63l2.26-4.21Z"/>
      <path d="M62.52,139.7l-3.42-.57-.31,3.15,4.17.68-.13.68c-.02.12-.45-.02-.59-.05l-4.34-.75.81-7.41,4.39.55-.03.82-3.6-.57-.26,2.24,3.36.49-.05.74Z"/>
      <path d="M110.31,131.96l-.61.54-4.64-6.16,2.34-1.49c1.2-.76,2.52-.64,3.37.42s.68,2.58-.53,3.35l-1.64,1.06,1.7,2.29ZM108.19,129.09c.76-.42,1.55-.9,2.06-1.56.47-.62.28-1.41-.22-1.91-1-1-2.47-.23-3.81.83l1.97,2.64Z"/>
      <path d="M102.52,136.35l.17-2.46.08-1.98-3.82-1.93c.49-.34.99-.35,1.34-.18l2.57,1.26.43-3.66.82-.41-.47,4.39,4.32,2.03-.44.66-4.02-1.86-.07,3.38c0,.16-.14.54-.22.67s-.48.14-.69.1Z"/>
      <path d="M113.71,124.36l2.18,2.39,2.82-2.46.42.62-3.4,2.98-4.83-5.43,3.03-2.86.72.48-2.74,2.34,1.43,1.43,2.03-1.83c.08-.07.33-.22.44-.24.13-.02.28.2.49.51l-2.59,2.08Z"/>
      <path d="M78.43,136.25l.86,4.5c.21,1.12,1.3,1.61,2.36,1.41.88-.17,1.76-.79,1.59-1.82l-.81-4.97.88-.22.73,4.5c.13.83-.07,1.8-.59,2.36s-1.26.88-2.15.95c-1.4.11-2.64-.79-2.9-2.23l-.81-4.42.84-.05Z"/>
      <polygon points="95.97 135.41 97.1 137.99 100.52 136.72 100.81 137.39 96.53 138.95 93.75 132.2 97.66 130.64 97.99 131.27 94.83 132.61 95.73 134.82 98.71 133.49 98.99 134.23 95.97 135.41"/>
      <path d="M39.71,136.89c-1.6.17-2.88-.76-3.81-1.86l.45-.62c1.28,1.65,3.43,2.39,4.15,1.24.15-.24.09-.98-.12-1.2l-2.03-2.11c-.5-.52-.8-1.2-.56-1.86.2-.54.8-1.07,1.49-1.19,1.3-.23,2.53.48,3.28,1.5l-.23.81c-1.03-1.26-2.44-2.14-3.44-1.28-.24.21-.39.99-.17,1.22l2.17,2.23c.45.46.63,1.28.47,1.83-.19.64-.79,1.2-1.64,1.29Z"/>
      <path d="M54.36,135.34c-1.96.18-2.92,2.27-2.47,3.89.49,1.75,2.51,2.72,4.33,1.91l-.18.76c-.16.67-4.43.42-5-2.77-.34-1.92.63-3.81,2.45-4.39,1.36-.43,2.77-.03,3.89.76l-.16.76c-.91-.52-1.75-1.02-2.86-.92Z"/>
      <path d="M44.3,139.07l-.91-.07,2.28-6.49-2.39-.79.25-.73,5.48,1.83.46.25c.12.07-.38.51-.51.47l-2.5-.77-2.15,6.3Z"/>
      <polygon points="126.98 116.2 121.15 112.19 120.04 113.96 119.47 113.36 122.71 108.72 123.24 109.2 121.7 111.62 127.48 115.46 126.98 116.2"/>
      <path d="M12.05,101.4c-1.62-.07-3.19-.42-4.79-.25-.98.1-1.84.6-2.84.98l-.25-.84,2.42-.89,2.86-3.88c.13-.07.61.44.5.59l-2.36,3.22,3.63.17c.15,0,.55.1.69.15s.15.45.13.76Z"/>
      <path d="M26.13,129.02c-1.03-.23-2.69-1.46-1.88-2.14.59.54,1.28,1.17,2.14,1.36.69.15,1.4-.44,1.77-1.04l2.24-3.64c.13-.07.48-.03.59.07.13.12.05.58-.06.75l-2.33,3.63c-.55.85-1.38,1.24-2.47,1Z"/>
      <path d="M48.6,139.65c-.11.37-.17.7-.34.77-.18.08-.75-.19-.68-.4l1.85-6.12c.05-.17.08-.84.25-.78l.8.29-1.89,6.24Z"/>
      <polygon points="129.48 111.94 122.98 108.17 123.53 107.53 129.96 111.17 129.48 111.94"/>
      <path d="M63.67,145l.86-.93c-.3-.39-.52-.77-.49-1.04.04-.34.67-.66.95-.39.4.39.31,1.02.07,1.55-.18.39-.76.76-1.38.81Z"/>
    </g>
  </g>
</svg>